<?xml version="1.0" encoding="UTF-8"?>
<svg width="36px" height="37px" viewBox="0 0 36 37" version="1.1" xmlns="http://www.w3.org/2000/svg" xmlns:xlink="http://www.w3.org/1999/xlink">
    <!-- Generator: Sketch 47.1 (45422) - http://www.bohemiancoding.com/sketch -->
    <title>f-icon</title>
    <desc>Created with Sketch.</desc>
    <defs></defs>
    <g id="Page-1" stroke="none" stroke-width="1" fill="none" fill-rule="evenodd">
        <g id="Desktop-HD-Copy-4" transform="translate(-352.000000, -948.000000)" fill-rule="nonzero" fill="#FFFFFF">
            <g id="social" transform="translate(352.000000, 948.000000)">
                <g id="f-icon">
                    <path d="M34.03,1.95399265e-14 L1.983,1.95399265e-14 C0.888732175,0.00220064584 0.00220064584,0.888732175 0,1.983 L0,34.016 C0.00165051656,35.1106583 0.888342642,35.9977976 1.983,36 L19.228,36 L19.228,22.061 L14.528,22.061 L14.528,16.624 L19.228,16.624 L19.228,12.63 C19.228,7.975 22.075,5.452 26.217,5.452 C27.6199066,5.4467225 29.0220363,5.51883203 30.417,5.668 L30.417,10.526 L27.54,10.526 C25.287,10.526 24.84,11.592 24.84,13.171 L24.84,16.639 L30.224,16.639 L29.524,22.077 L24.841,22.077 L24.841,36.027 L34.016,36.027 C35.1110479,36.0253479 35.9983479,35.1380479 36,34.043 L36,1.983 C36.004271,1.45803206 35.7985086,0.953139647 35.4285107,0.580700172 C35.0585128,0.208260698 34.5549847,-0.000818062764 34.03,1.95399265e-14 Z" id="Shape"></path>
                </g>
            </g>
        </g>
    </g>
</svg>