<?xml version="1.0" encoding="UTF-8"?>
<svg width="371px" height="328px" viewBox="0 0 371 328" version="1.1" xmlns="http://www.w3.org/2000/svg" xmlns:xlink="http://www.w3.org/1999/xlink">
    <!-- Generator: Sketch 47.1 (45422) - http://www.bohemiancoding.com/sketch -->
    <title>Shape</title>
    <desc>Created with Sketch.</desc>
    <defs></defs>
    <g id="Page-1" stroke="none" stroke-width="1" fill="none" fill-rule="evenodd">
        <g id="Desktop-HD-Copy-3" transform="translate(-455.000000, -232.000000)" fill-rule="nonzero" fill="#FFFFFF">
            <g id="top">
                <path d="M642.13071,349.769099 C647.858236,343.841968 655.921057,340.740631 664.158668,341.296119 L698.269924,341.296119 L698.269924,232 L585.991497,232 L585.991497,341.24283 L619.568093,341.24283 C627.972833,340.694758 636.203238,343.804976 642.13071,349.769099 L642.13071,349.769099 Z M602.405534,247.453864 L681.909353,247.453864 L678.861796,254.967639 L682.016285,262.587992 L650.685257,262.587992 L650.685257,271.167551 C650.685257,329.412631 642.13071,340.017179 642.13071,340.017179 C642.13071,340.017179 633.3623,330.79815 633.3623,277.13594 C633.415766,264.399825 642.13071,262.534703 642.13071,262.534703 L602.298602,262.534703 L605.453091,255.020928 L602.405534,247.453864 Z M478.952731,366.661771 L455,366.661771 L455,350.355281 L520.121487,350.355281 L520.121487,366.661771 L496.863813,366.661771 L496.863813,483.524955 L478.952731,483.524955 L478.952731,366.661771 Z M546.587116,484.803895 C563.69621,484.803895 572.999279,474.519082 572.999279,456.560627 L572.999279,397.942523 C572.999279,379.930778 563.69621,369.645966 546.587116,369.645966 C529.478023,369.645966 520.228419,379.930778 520.228419,397.942523 L520.228419,456.560627 C520.228419,474.519082 529.531489,484.803895 546.587116,484.803895 L546.587116,484.803895 Z M537.604842,397.196474 C537.604842,389.149807 541.080127,386.112324 546.587116,386.112324 C552.094106,386.112324 555.622856,389.149807 555.622856,397.196474 L555.622856,457.6797 C555.622856,465.726367 552.147572,468.76385 546.587116,468.76385 C541.026661,468.76385 537.604842,465.726367 537.604842,457.6797 L537.604842,397.196474 Z M583.318201,456.720494 L583.318201,371.084774 L600.694625,371.084774 L600.694625,457.839567 C600.694625,465.886234 604.169909,468.497404 609.730365,468.497404 C615.29082,468.497404 618.712639,465.619788 618.712639,457.839567 L618.712639,371.084774 L635.180141,371.084774 L635.180141,456.720494 C635.180141,474.67895 626.304799,484.963763 609.249171,484.963763 C592.193544,484.963763 583.318201,474.67895 583.318201,456.720494 L583.318201,456.720494 Z M682.390546,407.854311 L682.390546,397.196474 C682.835002,394.304333 681.938288,391.367454 679.952767,389.212358 C677.967245,387.057262 675.107577,385.916944 672.178556,386.112324 C666.831964,386.112324 663.196282,389.149807 663.196282,397.196474 L663.196282,457.6797 C663.196282,465.726367 666.671567,468.337537 672.178556,468.337537 C677.685545,468.337537 681.214296,465.459921 681.214296,457.6797 L681.214296,441.692944 L697.681799,441.692944 L697.681799,456.667205 C697.681799,474.625661 688.806456,484.910473 671.697363,484.910473 C654.588269,484.910473 645.766393,474.625661 645.766393,456.667205 L645.766393,398.049101 C645.766393,380.037357 654.641735,369.752544 671.697363,369.752544 C688.75299,369.752544 697.681799,380.037357 697.681799,398.049101 L697.681799,407.854311 L682.390546,407.854311 Z M725.644473,483.524955 L708.214584,483.524955 L708.214584,371.084774 L725.644473,371.084774 L725.644473,419.04504 L745.426863,419.04504 L745.426863,371.084774 L763.124081,371.084774 L763.124081,483.524955 L745.426863,483.524955 L745.426863,435.564688 L725.644473,435.564688 L725.644473,483.524955 L725.644473,483.524955 Z M825.946534,435.564688 L825.946534,420.057535 L825.946534,420.057535 L825.946534,397.196474 C825.946534,382.914973 820.332613,373.482787 809.479032,370.232147 L817.338521,349.875678 L799.694769,349.875678 L791.835279,370.072279 C780.179709,373.003184 774.13806,382.595238 774.13806,397.356342 L774.13806,456.560627 C774.13806,474.519082 783.013403,484.803895 800.122496,484.803895 C817.23159,484.803895 826,474.519082 826,456.560627 L826,452.350781 L809.479032,452.350781 L809.479032,457.6797 C809.479032,465.726367 805.201758,468.337537 799.694769,468.337537 C794.187779,468.337537 790.659029,465.459921 790.659029,457.6797 L790.659029,435.351531 L825.946534,435.564688 Z M790.659029,396.450426 C790.659029,388.457048 794.615507,385.366275 800.122496,385.366275 C805.629486,385.366275 809.853293,388.457048 809.853293,396.450426 L809.853293,420.270692 L790.659029,420.270692 L790.659029,396.450426 Z M487.935005,536.547694 L491.41029,528.394449 L489.271653,523.06553 L493.174665,523.06553 L497.772734,536.068091 L503.119326,523.118819 L506.755008,523.118819 L499.216314,541.077275 L496.703415,541.077275 L492.907335,532.018113 L489.004323,541.077275 L486.437959,541.077275 L478.952731,523.012241 L482.855743,523.012241 L487.935005,536.547694 Z M515.576884,541.183853 L512.208531,541.183853 L512.208531,523.118819 L515.576884,523.118819 L515.576884,541.183853 Z M526.644329,528.607605 L526.644329,541.077275 L523.329442,541.077275 L523.329442,523.118819 L526.056204,523.118819 L536.749388,535.695067 L536.749388,523.118819 L540.064274,523.118819 L540.064274,541.077275 L537.284047,541.077275 L526.644329,528.607605 Z M551.238651,526.103014 L551.238651,530.419438 L557.2803,530.419438 L557.2803,533.243764 L551.238651,533.243764 L551.238651,538.199659 L558.349618,538.199659 L558.349618,541.077275 L547.656435,541.077275 L547.656435,523.118819 L558.349618,523.118819 L558.349618,526.103014 L551.238651,526.103014 Z M586.312293,527.488532 C586.312293,525.03723 584.334054,523.172108 580.431042,523.172108 L575.08445,523.172108 L575.08445,541.077275 L580.431042,541.077275 C584.601383,541.077275 587.381611,538.945707 587.381611,535.748356 C587.494948,533.62847 586.081179,531.727308 584.013258,531.218775 C585.575732,530.554409 586.586849,529.021752 586.579622,527.328665 L586.312293,527.488532 Z M577.97161,525.889857 L579.896383,525.889857 C581.714224,525.889857 582.623145,526.902351 582.623145,528.128003 C582.623145,529.353654 581.714224,530.739173 579.575587,530.739173 L577.97161,530.739173 L577.97161,525.889857 Z M579.735985,538.519394 L577.97161,538.519394 L577.97161,533.190475 L580.056781,533.190475 C582.141951,533.190475 583.264736,534.309548 583.264736,535.748356 C583.264736,537.187164 582.195417,538.466105 579.735985,538.466105 L579.735985,538.519394 Z M603.63525,536.494405 L605.506557,541.183853 L609.356103,541.183853 L601.443147,522.852373 L598.876783,522.852373 L591.070759,541.077275 L594.920306,541.077275 L596.791613,536.387826 L603.63525,536.494405 Z M600.159965,527.488532 L602.672864,533.936524 L597.326272,533.936524 L600.159965,527.488532 Z M626.892924,528.501027 C626.892924,525.090519 624.380026,523.172108 620.209684,523.172108 L615.397752,523.172108 L615.397752,541.077275 L618.819571,541.077275 L618.819571,534.20297 L619.888889,534.20297 L625.235481,541.237142 L629.56622,541.237142 L623.417639,533.5635 C625.703623,532.950845 627.313287,530.912897 627.374117,528.554316 L626.892924,528.501027 Z M619.140366,531.964824 L618.819571,531.964824 L618.819571,526.103014 L620.26315,526.103014 C622.562185,526.103014 623.898833,527.062219 623.898833,528.874051 C623.898833,530.685884 622.294855,531.964824 619.140366,531.964824 L619.140366,531.964824 Z M641.809915,536.068091 C641.943396,537.656213 642.719893,539.121709 643.960567,540.127053 C645.201241,541.132396 646.799133,541.590917 648.386223,541.39701 C649.891649,541.396441 651.348938,540.86827 652.503098,539.904913 L653.358553,540.970696 L657.689292,540.970696 L654.641735,537.347032 C655.09992,536.589461 655.476282,535.785636 655.764519,534.949018 L656.780372,532.337848 L653.572417,532.337848 C653.251621,533.297054 652.87736,534.096391 652.556564,534.84244 L649.562473,531.272065 C651.594178,530.152992 652.823894,528.92734 652.87736,527.115508 C652.87736,521.78659 644.536677,521.413565 643.948552,526.529327 C643.895972,528.135373 644.427657,529.706229 645.445597,530.952329 C642.718836,532.551005 641.809915,534.149681 641.809915,535.854934 L641.809915,536.068091 Z M646.835711,526.795773 C646.835711,525.94228 647.529899,525.250387 648.386223,525.250387 C649.242547,525.250387 649.936734,525.94228 649.936734,526.795773 C649.883644,527.916384 649.17014,528.899437 648.118893,529.300365 C647.209973,528.181292 646.782245,527.541822 646.835711,526.529327 L646.835711,526.795773 Z M646.835711,532.657583 L647.156507,533.030608 L650.578325,537.347032 C649.936756,537.973745 649.070594,538.319065 648.172359,538.306237 C647.405938,538.380271 646.641599,538.146095 646.049238,537.65576 C645.456876,537.165424 645.085576,536.459561 645.01787,535.695067 C645.139842,534.46331 645.806236,533.349812 646.835711,532.657583 L646.835711,532.657583 Z M675.653841,522.639217 L675.653841,530.952329 L682.764808,522.639217 L687.255945,522.639217 L679.236057,531.431932 L687.737138,541.077275 L683.085603,541.077275 L675.493443,532.497716 L675.493443,541.077275 L672.12509,541.077275 L672.12509,523.118819 L675.653841,522.639217 Z M696.238219,541.077275 L692.869866,541.077275 L692.869866,523.118819 L696.238219,523.118819 L696.238219,541.077275 Z M708.321516,541.077275 L708.321516,526.156303 L702.333333,526.156303 L702.333333,523.012241 L717.624586,523.012241 L717.624586,526.156303 L711.636403,526.156303 L711.636403,541.077275 L708.321516,541.077275 Z M725.270212,532.071402 C725.163897,533.66123 725.7362,535.221868 726.84606,536.368654 C727.955921,537.515441 729.500102,538.141703 731.097997,538.09308 C733.373266,538.116473 735.513708,537.019883 736.81885,535.162175 L736.81885,535.162175 L736.444589,539.585177 C734.776855,540.774914 732.774605,541.40904 730.723735,541.39701 C728.222456,541.512351 725.792245,540.549807 724.052646,538.754764 C722.313048,536.959721 721.432152,534.505626 721.634529,532.018113 C721.576661,529.569485 722.516043,527.201848 724.238534,525.454933 C725.961024,523.708017 728.319818,522.730708 730.777201,522.745795 C732.821947,522.667168 734.840405,523.225997 736.55152,524.34447 L736.230725,528.341159 L736.230725,528.341159 C734.940737,526.734822 732.943878,525.859108 730.884133,525.996435 C729.27697,525.964273 727.729099,526.601297 726.612909,527.754252 C725.49672,528.907206 724.913254,530.471721 725.002882,532.071402 L725.270212,532.071402 Z M746.816977,523.012241 L746.816977,530.419438 L754.729932,530.419438 L754.729932,523.118819 L758.098285,523.118819 L758.098285,541.077275 L754.729932,541.077275 L754.729932,533.350343 L747.084306,533.350343 L747.084306,541.077275 L743.715953,541.077275 L743.715953,523.118819 L746.816977,523.012241 Z M769.272662,525.996435 L769.272662,530.419438 L775.795504,530.419438 L775.795504,533.243764 L769.539991,533.243764 L769.539991,538.199659 L776.597492,538.199659 L776.597492,541.077275 L766.171639,541.077275 L766.171639,523.118819 L776.544027,523.118819 L776.544027,526.103014 L769.272662,525.996435 Z M786.595619,528.501027 L786.595619,541.077275 L783.280732,541.077275 L783.280732,523.118819 L786.488687,523.118819 L797.181871,535.695067 L797.181871,523.118819 L800.496757,523.118819 L800.496757,541.077275 L797.181871,541.077275 L786.595619,528.501027 Z M456.44358,504.361026 L823.914829,504.361026 L823.914829,507.718245 L456.44358,507.718245 L456.44358,504.361026 Z M456.44358,556.371271 L823.914829,556.371271 L823.914829,559.728489 L456.44358,559.728489 L456.44358,556.371271 Z" id="Shape"></path>
            </g>
        </g>
    </g>
</svg>