<?xml version="1.0" encoding="UTF-8"?>
<svg width="36px" height="37px" viewBox="0 0 36 37" version="1.1" xmlns="http://www.w3.org/2000/svg" xmlns:xlink="http://www.w3.org/1999/xlink">
    <!-- Generator: Sketch 47.1 (45422) - http://www.bohemiancoding.com/sketch -->
    <title>i-icon</title>
    <desc>Created with Sketch.</desc>
    <defs></defs>
    <g id="Page-1" stroke="none" stroke-width="1" fill="none" fill-rule="evenodd">
        <g id="Desktop-HD-Copy-4" transform="translate(-406.000000, -948.000000)" fill-rule="nonzero" fill="#FFFFFF">
            <g id="social" transform="translate(352.000000, 948.000000)">
                <g id="i-icon" transform="translate(54.000000, 0.000000)">
                    <path d="M17.993,3.313 C22.8,3.313 23.364,3.334 25.264,3.42 C26.4059656,3.43103779 27.5372537,3.64118732 28.607,4.041 C29.3888718,4.32857498 30.0964912,4.78745125 30.678,5.384 C31.2767924,5.96366609 31.7360227,6.67183138 32.021,7.455 C32.4173185,8.52571287 32.627354,9.65638714 32.642,10.798 C32.728,12.698 32.749,13.262 32.749,18.069 C32.749,22.876 32.728,23.44 32.642,25.34 C32.6309622,26.4819656 32.4208127,27.6132537 32.021,28.683 C31.733425,29.4648718 31.2745487,30.1724912 30.678,30.754 C30.0983339,31.3527924 29.3901686,31.8120227 28.607,32.097 C27.5362871,32.4933185 26.4056129,32.703354 25.264,32.718 C23.364,32.804 22.8,32.825 17.993,32.825 C13.186,32.825 12.622,32.804 10.722,32.718 C9.58003438,32.7069622 8.4487463,32.4968127 7.379,32.097 C6.59712817,31.809425 5.88950884,31.3505487 5.308,30.754 C4.70920759,30.1743339 4.24997727,29.4661686 3.965,28.683 C3.56868146,27.6122871 3.35864595,26.4816129 3.344,25.34 C3.258,23.44 3.237,22.876 3.237,18.069 C3.237,13.262 3.258,12.698 3.344,10.798 C3.35503779,9.65603438 3.56518732,8.5247463 3.965,7.455 C4.25228326,6.67322148 4.71081279,5.96560996 5.307,5.384 C5.8869534,4.78508109 6.59547308,4.32584271 7.379,4.041 C8.44971287,3.64468146 9.58038714,3.43464595 10.722,3.42 C12.622,3.327 13.193,3.313 17.993,3.313 L17.993,3.313 Z M17.993,0.07 C13.107,0.07 12.493,0.091 10.572,0.177 C9.08018565,0.206747677 7.60423517,0.489426853 6.207,1.013 C5.00576638,1.4642438 3.91818868,2.17359297 3.021,3.091 C2.10744297,3.99134219 1.39868172,5.07801848 0.943,6.277 C0.41896616,7.67618673 0.136282982,9.15418694 0.107,10.648 C0.021,12.563 0,13.177 0,18.063 C0,22.949 0.021,23.563 0.107,25.484 C0.137723651,26.9776619 0.420360924,28.4554221 0.943,29.855 C1.39453636,31.0563254 2.10423181,32.1439106 3.022,33.041 C3.9219545,33.954798 5.00828585,34.6638978 6.207,35.12 C7.60618673,35.6440338 9.08418694,35.926717 10.578,35.956 C12.499,36.042 13.107,36.063 17.999,36.063 C22.891,36.063 23.499,36.042 25.42,35.956 C26.9136619,35.9252763 28.3914221,35.6426391 29.791,35.12 C30.9923254,34.6684636 32.0799106,33.9587682 32.977,33.041 C33.8909178,32.1407553 34.6000248,31.0540717 35.056,29.855 C35.5800338,28.4558133 35.862717,26.9778131 35.892,25.484 C35.978,23.563 35.999,22.955 35.999,18.063 C35.999,13.171 35.978,12.563 35.892,10.642 C35.8617088,9.14805864 35.5794082,7.66995285 35.057,6.27 C34.6054636,5.0686746 33.8957682,3.98108937 32.978,3.084 C32.0779481,2.17056278 30.991624,1.46180878 29.793,1.006 C28.3934976,0.481855062 26.9151499,0.199170084 25.421,0.17 C23.493,0.091 22.879,0.07 17.993,0.07 Z" id="Shape"></path>
                    <path d="M17.993,8.827 C12.8882321,8.827 8.75,12.9652321 8.75,18.07 C8.75,23.1747679 12.8882321,27.313 17.993,27.313 C23.0977679,27.313 27.236,23.1747679 27.236,18.07 C27.2354478,12.9654608 23.0975392,8.82755217 17.993,8.827 Z M17.993,24.063 C14.6792915,24.063 11.993,21.3767085 11.993,18.063 C11.993,14.7492915 14.6792915,12.063 17.993,12.063 C21.3067085,12.063 23.993,14.7492915 23.993,18.063 C23.993,19.6542989 23.360859,21.1804224 22.2356407,22.3056407 C21.1104224,23.430859 19.5842989,24.063 17.993,24.063 L17.993,24.063 Z" id="Shape"></path>
                    <circle id="Oval" cx="27.6" cy="8.455" r="2.157"></circle>
                </g>
            </g>
        </g>
    </g>
</svg>